<?xml version="1.0" standalone="no"?>
<!DOCTYPE svg PUBLIC "-//W3C//DTD SVG 20010904//EN"
 "http://www.w3.org/TR/2001/REC-SVG-20010904/DTD/svg10.dtd">
<svg version="1.0" xmlns="http://www.w3.org/2000/svg"
 width="100.000000pt" height="100.000000pt" viewBox="0 0 100.000000 100.000000"
 preserveAspectRatio="xMidYMid meet">
<metadata>
Created by potrace 1.14, written by Peter Selinger 2001-2017
</metadata>
<g transform="translate(0.000000,100.000000) scale(0.100000,-0.100000)"
fill="#000000" stroke="none">
<path d="M467 819 c-19 -51 -22 -92 -7 -120 17 -30 27 -23 33 24 3 23 8 51 10
62 3 11 0 33 -7 49 l-12 30 -17 -45z"/>
<path d="M607 779 c-43 -54 -55 -94 -32 -102 13 -6 73 63 76 87 9 75 4 76 -44
15z"/>
<path d="M308 803 c5 -10 12 -39 16 -64 7 -47 45 -97 64 -85 14 8 -24 115 -50
143 -25 27 -43 30 -30 6z"/>
<path d="M516 780 c-9 -46 -8 -88 3 -95 21 -12 31 78 13 111 -7 13 -10 10 -16
-16z"/>
<path d="M385 734 c15 -52 28 -69 43 -60 14 8 2 46 -24 79 -31 38 -35 34 -19
-19z"/>
<path d="M636 709 c-21 -36 -14 -76 8 -43 17 24 29 74 18 74 -4 0 -16 -14 -26
-31z"/>
<path d="M751 720 c-49 -19 -81 -51 -81 -81 0 -25 2 -25 61 17 28 19 53 33 56
30 3 -3 -16 -19 -41 -37 -43 -30 -60 -59 -36 -59 18 0 60 32 72 54 9 17 22 98
15 95 -1 -1 -22 -9 -46 -19z"/>
<path d="M182 703 c9 -10 25 -36 36 -59 18 -35 55 -64 82 -64 15 0 12 28 -4
37 -8 4 -24 25 -35 45 -13 22 -35 41 -53 47 -41 15 -44 14 -26 -6z"/>
<path d="M250 702 c0 -11 31 -55 50 -69 8 -7 23 -13 33 -13 17 0 17 2 -3 30
-21 30 -80 68 -80 52z"/>
<path d="M475 660 c-112 -17 -187 -106 -187 -221 0 -44 6 -69 25 -102 86 -146
282 -166 386 -40 126 153 -21 393 -224 363z m74 -24 c32 -1 39 -23 9 -28 -13
-2 -22 -9 -20 -16 3 -14 -14 -16 -23 -2 -4 6 -12 5 -21 -4 -19 -19 -18 -27 2
-19 14 5 15 3 4 -16 -11 -21 -13 -21 -29 -7 -10 9 -26 13 -39 9 -18 -4 -21 -2
-16 11 8 20 -3 21 -22 2 -16 -17 -18 -38 -5 -52 15 -14 30 -93 20 -100 -5 -3
-5 -13 1 -23 12 -24 4 -31 -35 -31 -17 0 -36 -5 -42 -11 -16 -16 -39 57 -24
75 6 7 8 15 5 18 -9 10 24 78 38 78 8 0 15 12 16 27 5 60 68 109 127 97 17 -4
41 -7 54 -8z m126 -63 c48 -51 67 -131 49 -199 -5 -20 -8 -21 -32 -8 -34 17
-51 18 -30 2 15 -12 12 -16 -21 -43 -21 -16 -45 -42 -54 -58 -16 -28 -53 -48
-73 -40 -6 2 -11 28 -11 61 1 49 -2 58 -21 67 -32 14 -28 47 8 69 30 17 31 17
64 -3 40 -25 47 -26 40 -6 -4 8 -10 12 -15 9 -5 -3 -9 2 -9 12 0 11 -6 15 -20
11 -24 -6 -38 11 -15 19 9 4 13 13 10 23 -4 14 2 17 36 17 24 0 44 7 50 15 12
20 11 53 -3 67 -9 9 -8 12 5 12 9 0 28 -12 42 -27z m-105 -13 c0 -10 -41 -30
-58 -30 -10 1 39 40 49 40 5 0 9 -5 9 -10z"/>
<path d="M595 490 c-3 -5 -1 -10 4 -10 6 0 11 5 11 10 0 6 -2 10 -4 10 -3 0
-8 -4 -11 -10z"/>
<path d="M605 360 c9 -16 20 -30 25 -30 5 0 1 13 -8 30 -22 39 -37 39 -17 0z"/>
<path d="M825 611 c-50 -9 -96 -38 -88 -57 10 -26 104 5 128 42 8 13 12 23 8
23 -5 -1 -26 -5 -48 -8z"/>
<path d="M170 591 c-24 -7 -23 -8 21 -34 47 -27 94 -36 87 -16 -7 22 -82 57
-108 50z"/>
<path d="M90 562 c0 -4 9 -12 19 -17 10 -6 40 -23 65 -39 33 -20 54 -26 71
-22 26 7 35 26 13 26 -7 0 -33 14 -58 30 -42 28 -110 42 -110 22z"/>
<path d="M820 543 c-14 -7 -32 -13 -41 -13 -9 0 -19 -7 -23 -15 -9 -24 39 -18
71 9 33 28 29 38 -7 19z"/>
<path d="M777 473 c-18 -17 -4 -33 33 -39 48 -8 54 -22 6 -16 -19 2 -37 -1
-41 -8 -12 -19 1 -23 50 -15 35 5 45 10 41 21 -3 8 1 14 10 14 8 0 25 5 37 11
20 11 17 13 -28 25 -56 15 -98 17 -108 7z"/>
<path d="M145 451 c-20 -8 -20 -8 1 -15 48 -15 114 -8 114 12 0 10 -91 12
-115 3z"/>
<path d="M100 415 c-31 -11 -32 -14 -15 -20 11 -4 32 -12 48 -17 32 -12 120
-5 125 11 6 19 -2 23 -48 26 -25 2 -52 5 -60 8 -8 3 -31 0 -50 -8z"/>
<path d="M761 361 c-7 -5 8 -20 40 -41 47 -30 62 -35 98 -31 17 1 -59 70 -79
72 -8 0 -22 2 -31 4 -9 1 -22 0 -28 -4z"/>
<path d="M740 310 c0 -15 59 -42 83 -38 20 3 19 6 -13 26 -37 23 -70 29 -70
12z"/>
<path d="M705 270 c-2 -4 7 -18 20 -30 14 -13 25 -29 25 -35 0 -14 36 -48 67
-64 l22 -11 -21 47 c-11 27 -29 58 -40 69 -20 22 -65 37 -73 24z"/>
<path d="M690 210 c19 -27 49 -50 65 -50 12 0 -26 60 -44 70 -35 18 -43 11
-21 -20z"/>
</g>
</svg>
