<?xml version="1.0" encoding="utf-8"?>
<!-- Generator: Adobe Illustrator 26.1.0, SVG Export Plug-In . SVG Version: 6.00 Build 0)  -->
<svg version="1.1" id="Layer_1" xmlns="http://www.w3.org/2000/svg" xmlns:xlink="http://www.w3.org/1999/xlink" x="0px" y="0px"
	 viewBox="0 0 16 16" style="enable-background:new 0 0 16 16;" xml:space="preserve">
<style type="text/css">
	.st0{fill:#FFFFFF;}
</style>
<path class="st0" d="M8,12c2.2,0,4-1.8,4-4s-1.8-4-4-4S4,5.8,4,8S5.8,12,8,12z M8,0c0.3,0,0.5,0.2,0.5,0.5v2C8.5,2.8,8.3,3,8,3
	C7.7,3,7.5,2.8,7.5,2.5v-2C7.5,0.2,7.7,0,8,0z M8,13c0.3,0,0.5,0.2,0.5,0.5v2C8.5,15.8,8.3,16,8,16c-0.3,0-0.5-0.2-0.5-0.5v-2
	C7.5,13.2,7.7,13,8,13z M16,8c0,0.3-0.2,0.5-0.5,0.5h-2C13.2,8.5,13,8.3,13,8c0-0.3,0.2-0.5,0.5-0.5h2C15.8,7.5,16,7.7,16,8z M3,8
	c0,0.3-0.2,0.5-0.5,0.5h-2C0.2,8.5,0,8.3,0,8c0-0.3,0.2-0.5,0.5-0.5h2C2.8,7.5,3,7.7,3,8z M13.7,2.3c0.2,0.2,0.2,0.5,0,0.7l-1.4,1.4
	c-0.2,0.2-0.5,0.2-0.7,0c-0.2-0.2-0.2-0.5,0-0.7L13,2.3C13.1,2.1,13.5,2.1,13.7,2.3z M4.5,11.5c0.2,0.2,0.2,0.5,0,0.7L3,13.7
	c-0.2,0.2-0.5,0.2-0.7,0c-0.2-0.2-0.2-0.5,0-0.7l1.4-1.4C4,11.3,4.3,11.3,4.5,11.5z M13.7,13.7c-0.2,0.2-0.5,0.2-0.7,0l-1.4-1.4
	c-0.2-0.2-0.2-0.5,0-0.7c0.2-0.2,0.5-0.2,0.7,0l1.4,1.4C13.9,13.1,13.9,13.5,13.7,13.7z M4.5,4.5C4.3,4.7,4,4.7,3.8,4.5L2.3,3
	c-0.2-0.2-0.2-0.5,0-0.7c0.2-0.2,0.5-0.2,0.7,0c0,0,0,0,0,0l1.4,1.4C4.7,4,4.7,4.3,4.5,4.5C4.5,4.5,4.5,4.5,4.5,4.5z"/>
</svg>
